# File generated by ImageToStl.com - Free Image and 3D model conversion tools

mtllib diamond.mtl

o obj1
v -5.4E-07 -83.17580223 1.301E-05
v -5.4E-07 -63.08904586 -18.18288729
v 12.85725236 -63.089045 -12.85724208
v -2.06E-06 78.54694128 -1.293E-05
v 33.96756649 78.54693575 -33.96758227
v -2.06E-06 78.54693345 -48.03741066
v -6.07E-06 58.01017606 -90.04567615
v 33.96756649 78.54693575 -33.96758227
v 63.67189884 58.01018035 -63.67190829
v 18.18289757 -63.0890429 1.053E-05
v 48.03739488 78.54694128 -1.083E-05
v 48.03739488 78.54694128 -1.083E-05
v 90.04566073 58.01019073 -1.135E-05
v 12.85725236 -63.08904081 12.85726264
v 33.96756649 78.54694681 33.96755667
v 33.96756649 78.54694681 33.96755667
v 63.67189884 58.0102011 63.67188939
v -2.13E-06 -63.08903994 18.18290785
v -6.26E-06 78.54694911 48.03738506
v -6.26E-06 78.54694911 48.03738506
v -2.58E-06 58.0102054 90.04565724
v -12.85725236 -63.08904081 12.85725668
v -33.96757245 78.54694681 33.96755071
v -33.96757245 78.54694681 33.96755071
v -63.67191076 58.0102011 63.67187747
v -18.18289757 -63.0890429 9.52E-06
v -48.03739786 78.54694128 -1.351E-05
v -48.03739786 78.54694128 -1.351E-05
v -90.04566669 58.01019073 -5E-06
v -12.85725236 -63.089045 -12.85723612
v -33.96757245 78.54693575 -33.96757929
v -33.96757245 78.54693575 -33.96757929
v -63.67191076 58.01018035 -63.67190233
v -2.06E-06 78.54693345 -48.03741066
v -6.07E-06 58.01017606 -90.04567615
v 35.35533845 28.43575577 -85.35534607
v 61.55228615 31.67374025 -61.55229131
v 12.85725236 -63.089045 -12.85724208
v 85.35534143 28.43576392 -35.35534011
v 87.04807758 31.67375028 -1.45E-06
v 18.18289757 -63.0890429 1.053E-05
v 85.35534143 28.43577544 35.35533382
v 61.55228615 31.67376031 61.55228099
v 12.85725236 -63.08904081 12.85726264
v 35.35533547 28.43578358 85.3553368
v -7.85E-06 31.67376446 87.04807242
v -2.13E-06 -63.08903994 18.18290785
v -35.35535038 28.43578358 85.35532488
v -61.55229807 31.67376031 61.55226907
v -12.85725236 -63.08904081 12.85725668
v -85.35534143 28.43577544 35.35532786
v -87.04807758 31.67375028 -6.29E-06
v -18.18289757 -63.0890429 9.52E-06
v -85.35534143 28.43576392 -35.35534011
v -61.55229807 31.67374025 -61.55228535
v -12.85725236 -63.089045 -12.85723612
v -35.35534441 28.43575577 -85.35534011
v -2.4E-07 31.6737361 -87.04808274
v -5.4E-07 -63.08904586 -18.18288729
v -2.4E-07 34.44193674 -87.04808319
v -35.35534441 37.67991762 -85.35534161
v -61.55229807 34.44194089 -61.5522858
v -85.35534143 37.67992576 -35.35534161
v -87.04807758 34.44195092 -6.75E-06
v -85.35534143 37.67993728 35.35532635
v -61.55229807 34.44196095 61.55226862
v -35.35535038 37.67994543 85.35532337
v -7.85E-06 34.4419651 87.04807197
v 35.35533547 37.67994543 85.3553353
v 61.55228615 34.44196095 61.55228054
v 85.35534143 37.67993728 35.35533232
v 87.04807758 34.44195092 -1.9E-06
v 85.35534143 37.67992576 -35.35534161
v 61.55228615 34.44194089 -61.55229176
v 35.35533845 37.67991762 -85.35534757
v -5.4E-07 -63.08904586 -18.18288729
v -2.4E-07 31.6737361 -87.04808274
v -2.4E-07 34.44193674 -87.04808319
v -2.06E-06 78.54693345 -48.03741066
vn 0.29356 0.7087 -0.64153
vn -0 0 1
vn 0.17898 0.43211 0.88388
vn 0.7087 0.29355 -0.64153
vn 0 0 1
vn 0.43211 0.17898 0.88388
vn 0.7087 -0.29355 -0.64153
vn 0.43211 -0.17898 0.88388
vn 0.29356 -0.7087 -0.64153
vn 0.17898 -0.43211 0.88388
vn -0.29356 -0.7087 -0.64153
vn -0.17898 -0.43211 0.88388
vn -0.7087 -0.29356 -0.64153
vn -0.43211 -0.17898 0.88388
vn -0.7087 0.29355 -0.64153
vn -0.43211 0.17898 0.88388
vn -0.29356 0.7087 -0.64153
vn -0.17898 0.43211 0.88388
vn 0.58263 0.56127 -0.58781
vn 0.80886 -0.01511 -0.58781
vn 0.56127 -0.58263 -0.58781
vn -0.01511 -0.80886 -0.58781
vn -0.58263 -0.56127 -0.58781
vn -0.80886 0.01511 -0.58781
vn -0.56127 0.58263 -0.58781
vn 0.01511 0.80886 -0.58781
vn -0.05895 0.99028 -0.12595
vn -0.74192 0.65855 -0.12595
vn -0.99028 -0.05895 -0.12595
vn -0.65855 -0.74192 -0.12595
vn 0.05895 -0.99028 -0.12595
vn 0.74192 -0.65855 -0.12595
vn 0.99028 0.05895 -0.12595
vn 0.65855 0.74192 -0.12595
vn 0.29506 0.71235 -0.63679
vn -0.01511 0.80886 -0.58781
vn 0.71235 0.29506 -0.63679
vn 0.56127 0.58263 -0.58781
vn 0.71235 -0.29506 -0.63679
vn 0.80886 0.01511 -0.58781
vn 0.29506 -0.71235 -0.63679
vn 0.58263 -0.56127 -0.58781
vn -0.29506 -0.71235 -0.63679
vn 0.01511 -0.80886 -0.58781
vn -0.71235 -0.29506 -0.63679
vn -0.56127 -0.58263 -0.58781
vn -0.71235 0.29506 -0.63679
vn -0.80886 -0.01511 -0.58781
vn -0.29506 0.71235 -0.63679
vn -0.58263 0.56127 -0.58781
vn -0.65855 0.74192 -0.12595
vn -0.34867 0.84176 0.41215
vn -0.99028 0.05895 -0.12595
vn -0.84176 0.34867 0.41215
vn -0.74192 -0.65855 -0.12595
vn -0.84176 -0.34867 0.41215
vn -0.05895 -0.99028 -0.12595
vn -0.34867 -0.84176 0.41215
vn 0.65855 -0.74192 -0.12595
vn 0.34867 -0.84176 0.41215
vn 0.99028 -0.05895 -0.12595
vn 0.84176 -0.34867 0.41215
vn 0.74192 0.65855 -0.12595
vn 0.84176 0.34867 0.41215
vn 0.05895 0.99028 -0.12595
vn 0.34867 0.84176 0.41215
vn 0.17898 0.43211 0.88388
vn 0.43211 0.17898 0.88388
vn 0.43211 -0.17898 0.88388
vn 0.17898 -0.43211 0.88388
vn -0.17899 -0.43211 0.88388
vn -0.43211 -0.17898 0.88388
vn -0.43211 0.17898 0.88388
vn -0.17898 0.43211 0.88388
vn -0.04782 0.99886 0
vn -0.74011 0.67248 0
vn -0.99886 -0.04782 0
vn -0.67248 -0.74011 0
vn 0.04782 -0.99886 0
vn 0.74011 -0.67248 0
vn 0.99886 0.04782 0
vn 0.67248 0.74011 0
vn 0.04782 0.99886 0
vn 0.74011 0.67248 0
vn 0.99886 -0.04782 0
vn 0.67248 -0.74011 0
vn -0.04782 -0.99886 0
vn -0.74011 -0.67248 0
vn -0.99886 0.04782 0
vn -0.67248 0.74011 0
vt 0.75 0.75
vt 0.75 0.51
vt 0.91971 0.58029
vt 0.25 0.75
vt 0.41971 0.58029
vt 0.25 0.51
vt 1 0.125
vt 0.875 0
vt 0.875 0.125
vt 0.99 0.75
vt 0.49 0.75
vt 0.75 0
vt 0.75 0.125
vt 0.91971 0.91971
vt 0.41971 0.91971
vt 0.625 0
vt 0.625 0.125
vt 0.75 0.99
vt 0.25 0.99
vt 0.5 0
vt 0.5 0.125
vt 0.58029 0.91971
vt 0.08029 0.91971
vt 0.375 0
vt 0.375 0.125
vt 0.51 0.75
vt 0.01 0.75
vt 0.25 0
vt 0.25 0.125
vt 0.58029 0.58029
vt 0.08029 0.58029
vt 0.125 0
vt 0.125 0.125
vt 0 0
vt 0 0.125
vt 0.9375 0.375
vt 0.875 0.375
vt 0.875 0.5
vt 0.8125 0.375
vt 0.75 0.375
vt 0.75 0.5
vt 0.6875 0.375
vt 0.625 0.375
vt 0.625 0.5
vt 0.5625 0.375
vt 0.5 0.375
vt 0.5 0.5
vt 0.4375 0.375
vt 0.375 0.375
vt 0.375 0.5
vt 0.3125 0.375
vt 0.25 0.375
vt 0.25 0.5
vt 0.1875 0.375
vt 0.125 0.375
vt 0.125 0.5
vt 0.0625 0.375
vt 0 0.375
vt 0 0.5
vt 0 0.25
vt 0.0625 0.25
vt 0.125 0.25
vt 0.1875 0.25
vt 0.25 0.25
vt 0.3125 0.25
vt 0.375 0.25
vt 0.4375 0.25
vt 0.5 0.25
vt 0.5625 0.25
vt 0.625 0.25
vt 0.6875 0.25
vt 0.75 0.25
vt 0.8125 0.25
vt 0.875 0.25
vt 0.9375 0.25
vt 1 0.5
vt 1 0.375
vt 1 0.25
vt 1 0
usemtl mat0
f 1/1/1 2/2/1 3/3/1
f 4/4/2 5/5/2 6/6/2
f 7/7/3 8/8/3 9/9/3
f 1/1/4 3/3/4 10/10/4
f 4/4/5 11/11/5 5/5/5
f 9/9/6 12/12/6 13/13/6
f 1/1/7 10/10/7 14/14/7
f 4/4/5 15/15/5 11/11/5
f 13/13/8 16/16/8 17/17/8
f 1/1/9 14/14/9 18/18/9
f 4/4/2 19/19/2 15/15/2
f 17/17/10 20/20/10 21/21/10
f 1/1/11 18/18/11 22/22/11
f 4/4/2 23/23/2 19/19/2
f 21/21/12 24/24/12 25/25/12
f 1/1/13 22/22/13 26/26/13
f 4/4/5 27/27/5 23/23/5
f 25/25/14 28/28/14 29/29/14
f 1/1/15 26/26/15 30/30/15
f 4/4/5 31/31/5 27/27/5
f 29/29/16 32/32/16 33/33/16
f 1/1/17 30/30/17 2/2/17
f 4/4/5 6/6/5 31/31/5
f 33/33/18 34/34/18 35/35/18
f 36/36/19 37/37/19 38/38/19
f 39/39/20 40/40/20 41/41/20
f 42/42/21 43/43/21 44/44/21
f 45/45/22 46/46/22 47/47/22
f 48/48/23 49/49/23 50/50/23
f 51/51/24 52/52/24 53/53/24
f 54/54/25 55/55/25 56/56/25
f 57/57/26 58/58/26 59/59/26
f 35/35/27 60/60/27 61/61/27
f 33/33/28 62/62/28 63/63/28
f 29/29/29 64/64/29 65/65/29
f 25/25/30 66/66/30 67/67/30
f 21/21/31 68/68/31 69/69/31
f 17/17/32 70/70/32 71/71/32
f 13/13/33 72/72/33 73/73/33
f 9/9/34 74/74/34 75/75/34
f 38/38/35 76/76/35 36/36/35
f 76/76/36 77/77/36 36/36/36
f 41/41/37 38/38/37 39/39/37
f 38/38/38 37/37/38 39/39/38
f 44/44/39 41/41/39 42/42/39
f 41/41/40 40/40/40 42/42/40
f 47/47/41 44/44/41 45/45/41
f 44/44/42 43/43/42 45/45/42
f 50/50/43 47/47/43 48/48/43
f 47/47/44 46/46/44 48/48/44
f 53/53/45 50/50/45 51/51/45
f 50/50/46 49/49/46 51/51/46
f 56/56/47 53/53/47 54/54/47
f 53/53/48 52/52/48 54/54/48
f 59/59/49 56/56/49 57/57/49
f 56/56/50 55/55/50 57/57/50
f 61/61/51 62/62/51 33/33/51
f 33/33/52 35/35/52 61/61/52
f 63/63/53 64/64/53 29/29/53
f 29/29/54 33/33/54 63/63/54
f 65/65/55 66/66/55 25/25/55
f 25/25/56 29/29/56 65/65/56
f 67/67/57 68/68/57 21/21/57
f 21/21/58 25/25/58 67/67/58
f 69/69/59 70/70/59 17/17/59
f 17/17/60 21/21/60 69/69/60
f 71/71/61 72/72/61 13/13/61
f 13/13/62 17/17/62 71/71/62
f 73/73/63 74/74/63 9/9/63
f 9/9/64 13/13/64 73/73/64
f 75/75/65 78/78/65 7/7/65
f 7/7/66 9/9/66 75/75/66
f 7/7/67 79/79/67 8/8/67
f 9/9/68 8/8/68 12/12/68
f 13/13/69 12/12/69 16/16/69
f 17/17/70 16/16/70 20/20/70
f 21/21/71 20/20/71 24/24/71
f 25/25/72 24/24/72 28/28/72
f 29/29/73 28/28/73 32/32/73
f 33/33/74 32/32/74 34/34/74
f 57/57/75 61/61/75 60/60/75
f 57/57/75 60/60/75 58/58/75
f 54/54/76 63/63/76 62/62/76
f 54/54/76 62/62/76 55/55/76
f 51/51/77 65/65/77 64/64/77
f 51/51/77 64/64/77 52/52/77
f 48/48/78 67/67/78 66/66/78
f 48/48/78 66/66/78 49/49/78
f 45/45/79 69/69/79 68/68/79
f 45/45/79 68/68/79 46/46/79
f 42/42/80 71/71/80 70/70/80
f 42/42/80 70/70/80 43/43/80
f 39/39/81 73/73/81 72/72/81
f 39/39/81 72/72/81 40/40/81
f 36/36/82 75/75/82 74/74/82
f 36/36/82 74/74/82 37/37/82
f 77/77/83 78/78/83 75/75/83
f 77/77/83 75/75/83 36/36/83
f 37/37/84 74/74/84 73/73/84
f 37/37/84 73/73/84 39/39/84
f 40/40/85 72/72/85 71/71/85
f 40/40/85 71/71/85 42/42/85
f 43/43/86 70/70/86 69/69/86
f 43/43/86 69/69/86 45/45/86
f 46/46/87 68/68/87 67/67/87
f 46/46/87 67/67/87 48/48/87
f 49/49/88 66/66/88 65/65/88
f 49/49/88 65/65/88 51/51/88
f 52/52/89 64/64/89 63/63/89
f 52/52/89 63/63/89 54/54/89
f 55/55/90 62/62/90 61/61/90
f 55/55/90 61/61/90 57/57/90
# Vertices: 79, normals: 90, texture coordinates: 79, faces: 112

